<?xml version="1.0" encoding="utf-8"?>
<!-- Generator: Adobe Illustrator 16.0.0, SVG Export Plug-In . SVG Version: 6.00 Build 0)  -->
<!DOCTYPE svg PUBLIC "-//W3C//DTD SVG 1.1//EN" "http://www.w3.org/Graphics/SVG/1.1/DTD/svg11.dtd">
<svg version="1.1" id="Layer_1" xmlns="http://www.w3.org/2000/svg" xmlns:xlink="http://www.w3.org/1999/xlink" x="0px" y="0px"
	 width="92.453px" height="15.625px" viewBox="0 0 92.453 15.625" enable-background="new 0 0 92.453 15.625" xml:space="preserve">
<g>
	<defs>
		<rect id="SVGID_1_" width="92.453" height="15.625"/>
	</defs>
	<clipPath id="SVGID_2_">
		<use xlink:href="#SVGID_1_"  overflow="visible"/>
	</clipPath>
	<path clip-path="url(#SVGID_2_)" d="M12.463,7.439c0,0.811,0.273,1.486,0.821,2.028c0.547,0.542,1.215,0.813,2.003,0.813
		c0.676,0,1.255-0.188,1.732-0.564c0.478-0.376,0.763-0.763,0.855-1.164c0.037-0.215,0.177-0.322,0.418-0.322
		c0.139,0,0.248,0.036,0.326,0.11c0.079,0.073,0.119,0.168,0.119,0.286c0,0.039-0.009,0.087-0.028,0.146
		c-0.13,0.556-0.499,1.098-1.105,1.625c-0.608,0.526-1.399,0.791-2.372,0.791c-1.002,0-1.856-0.363-2.561-1.091
		c-0.704-0.728-1.057-1.613-1.057-2.658c0-1.024,0.36-1.926,1.078-2.701c0.719-0.777,1.565-1.165,2.54-1.165
		c0.444,0,0.864,0.079,1.259,0.234c0.394,0.157,0.73,0.36,1.008,0.609c0.278,0.248,0.517,0.526,0.716,0.834
		c0.2,0.307,0.349,0.613,0.446,0.915C18.758,6.468,18.807,6.747,18.807,7c0,0.127-0.044,0.232-0.133,0.315
		c-0.088,0.083-0.206,0.124-0.355,0.124h-5.007c-0.14,0-0.248-0.041-0.327-0.124c-0.08-0.083-0.119-0.184-0.119-0.301
		c0-0.127,0.039-0.236,0.119-0.329c0.079-0.093,0.178-0.139,0.299-0.139h4.549c-0.112-0.498-0.403-0.972-0.877-1.42
		c-0.472-0.45-1.056-0.674-1.752-0.674c-0.817,0-1.478,0.307-1.983,0.922C12.715,5.99,12.463,6.677,12.463,7.439"/>
	<path clip-path="url(#SVGID_2_)" d="M22.979,4.452c-0.668,0-1.231,0.264-1.69,0.791C20.83,5.769,20.6,6.399,20.6,7.132v3.617
		c0,0.127-0.044,0.237-0.132,0.329c-0.089,0.093-0.192,0.14-0.313,0.14c-0.112,0-0.206-0.049-0.285-0.146
		c-0.079-0.099-0.119-0.21-0.119-0.337V3.939c0-0.116,0.044-0.207,0.132-0.27c0.088-0.064,0.193-0.096,0.314-0.096
		c0.268,0,0.403,0.122,0.403,0.366v0.689c0.584-0.703,1.377-1.055,2.379-1.055c0.928,0,1.676,0.352,2.246,1.055
		c0.571,0.703,0.857,1.566,0.857,2.592v3.514c0,0.138-0.042,0.252-0.125,0.344c-0.084,0.093-0.187,0.14-0.307,0.14
		c-0.111,0-0.211-0.049-0.299-0.146c-0.088-0.099-0.133-0.205-0.133-0.322V7.278c0-0.829-0.196-1.509-0.591-2.035
		C24.233,4.716,23.684,4.452,22.979,4.452"/>
	<path clip-path="url(#SVGID_2_)" d="M27.876,0.908v7.761c0,0.488,0.174,0.887,0.522,1.194c0.348,0.308,0.776,0.461,1.286,0.461
		c0.538,0,0.984-0.151,1.336-0.454c0.353-0.302,0.528-0.713,0.528-1.229c0-0.137,0.037-0.249,0.112-0.338
		c0.075-0.087,0.181-0.131,0.32-0.131c0.13,0,0.236,0.044,0.32,0.131c0.083,0.089,0.125,0.201,0.125,0.338
		c0,0.752-0.271,1.369-0.813,1.852c-0.543,0.483-1.19,0.726-1.941,0.726c-0.723,0-1.345-0.24-1.864-0.718
		c-0.52-0.479-0.779-1.089-0.779-1.831V0.908c0-0.137,0.042-0.251,0.125-0.344c0.083-0.092,0.181-0.139,0.292-0.139
		c0.12,0,0.223,0.05,0.306,0.146C27.834,0.67,27.876,0.782,27.876,0.908 M31.647,3.706c0.082,0.088,0.125,0.189,0.125,0.307
		c0,0.117-0.043,0.226-0.125,0.33c-0.084,0.102-0.182,0.153-0.293,0.153h-2.56c-0.111,0-0.209-0.051-0.292-0.153
		c-0.084-0.104-0.126-0.213-0.126-0.33c0-0.118,0.042-0.219,0.126-0.307c0.083-0.089,0.181-0.133,0.292-0.133h2.56
		C31.465,3.573,31.563,3.617,31.647,3.706"/>
	<path clip-path="url(#SVGID_2_)" d="M36.71,3.573c0.982,0,1.834,0.374,2.553,1.12c0.718,0.748,1.078,1.643,1.078,2.688
		c0,1.054-0.36,1.958-1.078,2.708c-0.719,0.752-1.571,1.127-2.553,1.127c-0.992,0-1.843-0.375-2.553-1.127
		c-0.71-0.751-1.064-1.655-1.064-2.708c0-1.054,0.354-1.953,1.064-2.695C34.867,3.944,35.718,3.573,36.71,3.573 M36.71,10.28
		c0.761,0,1.414-0.28,1.962-0.842c0.547-0.562,0.82-1.247,0.82-2.057c0-0.8-0.275-1.489-0.828-2.065
		c-0.551-0.576-1.203-0.864-1.954-0.864c-0.761,0-1.412,0.288-1.955,0.864c-0.542,0.576-0.814,1.265-0.814,2.065
		c0,0.791,0.256,1.474,0.766,2.049c0.51,0.576,1.121,0.864,1.836,0.864c0.019,0,0.046-0.002,0.084-0.007
		C36.664,10.283,36.691,10.28,36.71,10.28"/>
	<path clip-path="url(#SVGID_2_)" d="M42.136,3.925v0.439c0.528-0.527,1.178-0.791,1.948-0.791c0.704,0,1.314,0.223,1.828,0.666
		c0.516,0.446,0.773,1.043,0.773,1.795c0,0.127-0.041,0.232-0.125,0.315s-0.191,0.124-0.32,0.124c-0.288,0-0.431-0.146-0.431-0.439
		c0-0.478-0.172-0.859-0.515-1.142c-0.343-0.283-0.747-0.425-1.21-0.425c-0.529,0-0.985,0.188-1.371,0.563
		c-0.385,0.376-0.577,0.921-0.577,1.634v4.027c0,0.127-0.041,0.232-0.125,0.314c-0.084,0.083-0.186,0.125-0.306,0.125
		c-0.121,0-0.22-0.042-0.299-0.125c-0.08-0.082-0.119-0.188-0.119-0.314V3.925c0-0.126,0.037-0.227,0.112-0.3
		c0.074-0.073,0.175-0.109,0.306-0.109c0.129,0,0.234,0.036,0.313,0.109C42.097,3.698,42.136,3.799,42.136,3.925"/>
	<path clip-path="url(#SVGID_2_)" d="M48.451,1.348c0.158,0,0.292,0.057,0.402,0.169c0.112,0.112,0.168,0.251,0.168,0.417
		s-0.058,0.306-0.175,0.417c-0.115,0.112-0.249,0.169-0.396,0.169c-0.158,0-0.292-0.061-0.403-0.184
		c-0.112-0.122-0.168-0.265-0.168-0.431c0-0.157,0.059-0.289,0.175-0.396C48.171,1.401,48.303,1.348,48.451,1.348 M48.826,3.969
		v6.766c0,0.138-0.041,0.252-0.125,0.343c-0.083,0.094-0.187,0.141-0.307,0.141c-0.119,0-0.22-0.049-0.298-0.146
		c-0.08-0.098-0.119-0.21-0.119-0.337V3.969c0-0.116,0.041-0.212,0.125-0.285c0.083-0.073,0.19-0.111,0.32-0.111
		C48.691,3.573,48.826,3.706,48.826,3.969"/>
	<path clip-path="url(#SVGID_2_)" d="M53.349,4.452c-0.668,0-1.231,0.264-1.69,0.791c-0.459,0.526-0.688,1.156-0.688,1.889v3.617
		c0,0.127-0.045,0.237-0.134,0.329c-0.088,0.093-0.191,0.14-0.313,0.14c-0.111,0-0.206-0.049-0.284-0.146
		c-0.079-0.099-0.12-0.21-0.12-0.337V3.939c0-0.116,0.045-0.207,0.133-0.27c0.089-0.064,0.193-0.096,0.314-0.096
		c0.268,0,0.403,0.122,0.403,0.366v0.689c0.584-0.703,1.377-1.055,2.379-1.055c0.927,0,1.676,0.352,2.246,1.055
		c0.569,0.703,0.855,1.566,0.855,2.592v3.514c0,0.138-0.042,0.252-0.125,0.344c-0.083,0.093-0.186,0.14-0.306,0.14
		c-0.111,0-0.212-0.049-0.3-0.146c-0.088-0.099-0.133-0.205-0.133-0.322V7.278c0-0.829-0.196-1.509-0.591-2.035
		C54.603,4.716,54.053,4.452,53.349,4.452"/>
	<path clip-path="url(#SVGID_2_)" d="M63.239,10.412c-0.084,0.059-0.167,0.088-0.25,0.088c-0.121,0-0.227-0.051-0.313-0.154
		c-0.089-0.102-0.133-0.212-0.133-0.329c0-0.146,0.069-0.264,0.209-0.352c0.297-0.205,0.545-0.515,0.744-0.93
		c0.199-0.416,0.3-0.866,0.3-1.354c0-0.811-0.274-1.501-0.822-2.073c-0.547-0.57-1.2-0.856-1.961-0.856
		c-0.732,0-1.378,0.266-1.934,0.798c-0.557,0.533-0.834,1.174-0.834,1.927c0,0.389,0.088,0.763,0.264,1.119
		c0.177,0.357,0.408,0.664,0.696,0.923c0.286,0.258,0.579,0.479,0.876,0.659c0.297,0.18,0.602,0.329,0.918,0.446
		c0.195,0.078,0.385,0.159,0.57,0.242s0.422,0.212,0.71,0.388c0.287,0.176,0.535,0.36,0.744,0.557
		c0.209,0.195,0.39,0.439,0.543,0.732c0.151,0.292,0.229,0.595,0.229,0.907c0,0.674-0.274,1.255-0.822,1.741
		c-0.547,0.489-1.242,0.733-2.087,0.733c-0.546,0-1.026-0.097-1.438-0.292c-0.413-0.195-0.722-0.441-0.926-0.733
		c-0.203-0.292-0.354-0.57-0.451-0.834c-0.099-0.264-0.146-0.503-0.146-0.718c0-0.146,0.04-0.272,0.118-0.38
		c0.079-0.109,0.184-0.162,0.313-0.162c0.11,0,0.209,0.04,0.292,0.117c0.083,0.078,0.125,0.177,0.125,0.294
		c0,0.175,0.034,0.36,0.104,0.556c0.069,0.195,0.18,0.393,0.333,0.593s0.377,0.364,0.668,0.49c0.293,0.127,0.632,0.191,1.022,0.191
		c0.641,0,1.132-0.142,1.475-0.425s0.514-0.669,0.514-1.157c0-0.381-0.191-0.744-0.576-1.091c-0.385-0.348-0.837-0.632-1.356-0.856
		c-0.464-0.195-0.871-0.393-1.224-0.593s-0.724-0.464-1.113-0.791c-0.389-0.327-0.691-0.72-0.904-1.179
		c-0.213-0.459-0.32-0.972-0.32-1.537c0-0.977,0.362-1.811,1.086-2.505c0.724-0.693,1.567-1.04,2.531-1.04
		c0.983,0,1.836,0.369,2.561,1.107c0.723,0.737,1.085,1.623,1.085,2.657c0,0.635-0.139,1.24-0.417,1.815
		C63.962,9.728,63.629,10.148,63.239,10.412"/>
	<path clip-path="url(#SVGID_2_)" d="M76.733,11.218h-7.694c-0.111,0-0.205-0.049-0.285-0.146c-0.079-0.098-0.119-0.21-0.119-0.337
		V0.484c0-0.126,0.048-0.239,0.141-0.337C68.868,0.05,68.969,0,69.082,0c0.12,0,0.219,0.05,0.298,0.147
		c0.079,0.098,0.119,0.211,0.119,0.337v9.796h7.234c0.129,0,0.232,0.047,0.312,0.14s0.119,0.202,0.119,0.329
		s-0.042,0.237-0.125,0.329C76.955,11.171,76.854,11.218,76.733,11.218"/>
	<path clip-path="url(#SVGID_2_)" d="M82.841,10.368c-0.26,0.264-0.604,0.472-1.029,0.623c-0.427,0.149-0.826,0.227-1.197,0.227
		c-0.991,0-1.843-0.375-2.552-1.128c-0.71-0.751-1.064-1.655-1.064-2.709c0-1.054,0.354-1.952,1.064-2.695
		c0.709-0.742,1.561-1.113,2.552-1.113c1.131,0,2.06,0.459,2.783,1.377V3.925c0-0.126,0.043-0.227,0.131-0.3s0.193-0.11,0.314-0.11
		c0.109,0,0.206,0.039,0.284,0.117c0.079,0.079,0.118,0.175,0.118,0.293v3.456v3.354c0,0.138-0.042,0.252-0.125,0.344
		c-0.084,0.093-0.186,0.14-0.306,0.14s-0.221-0.049-0.299-0.146c-0.079-0.099-0.118-0.215-0.118-0.352V7.381
		c0-0.8-0.277-1.489-0.828-2.065c-0.552-0.576-1.204-0.864-1.955-0.864c-0.76,0-1.412,0.288-1.955,0.864
		c-0.543,0.576-0.813,1.265-0.813,2.065c0,0.8,0.27,1.484,0.813,2.05c0.543,0.566,1.195,0.85,1.955,0.85
		c0.344,0,0.705-0.085,1.085-0.256c0.381-0.172,0.649-0.349,0.808-0.535c0.074-0.078,0.157-0.116,0.25-0.116
		c0.094,0,0.182,0.046,0.265,0.139c0.083,0.092,0.126,0.203,0.126,0.329C83.147,10.036,83.045,10.212,82.841,10.368"/>
	<path clip-path="url(#SVGID_2_)" d="M86.708,4.291c0.584-0.479,1.284-0.718,2.101-0.718c0.992,0,1.848,0.374,2.566,1.12
		c0.719,0.748,1.078,1.643,1.078,2.688c0,1.055-0.359,1.958-1.078,2.709c-0.719,0.753-1.574,1.128-2.566,1.128
		c-0.52,0-1.022-0.125-1.51-0.373c-0.487-0.249-0.903-0.589-1.244-1.019v0.952c0,0.127-0.048,0.232-0.14,0.314
		c-0.093,0.083-0.199,0.125-0.32,0.125c-0.112,0-0.204-0.044-0.279-0.132c-0.073-0.088-0.11-0.191-0.11-0.308V7.132V4.013V0.895
		c0-0.137,0.04-0.25,0.118-0.337c0.078-0.088,0.184-0.133,0.313-0.133c0.12,0,0.22,0.047,0.299,0.139
		c0.079,0.093,0.119,0.203,0.119,0.331v6.354v0.19c0,0.801,0.269,1.475,0.806,2.021c0.537,0.547,1.188,0.82,1.948,0.82
		c0.77,0,1.427-0.273,1.976-0.82c0.547-0.546,0.819-1.22,0.819-2.021c0-0.81-0.275-1.509-0.827-2.101
		c-0.552-0.591-1.209-0.886-1.968-0.886c-0.084,0-0.163,0.003-0.236,0.007c-0.075,0.006-0.14,0.013-0.195,0.022
		c-0.057,0.01-0.118,0.028-0.188,0.052c-0.068,0.025-0.125,0.041-0.167,0.051c-0.042,0.01-0.097,0.032-0.167,0.066
		c-0.068,0.035-0.118,0.059-0.145,0.073c-0.028,0.015-0.08,0.047-0.153,0.095c-0.075,0.049-0.121,0.078-0.14,0.088
		c-0.02,0.01-0.069,0.046-0.153,0.111C87.181,5.08,87.13,5.116,87.11,5.126c-0.12,0.068-0.222,0.102-0.306,0.102
		c-0.112,0-0.201-0.041-0.271-0.124c-0.07-0.083-0.104-0.188-0.104-0.315C86.43,4.584,86.521,4.419,86.708,4.291"/>
	<path clip-path="url(#SVGID_2_)" d="M5.331,3.624C5.252,3.422,5.163,3.226,5.053,3.033c-0.154-0.27-0.325-0.53-0.514-0.776
		C4.352,2.012,4.146,1.78,3.926,1.565C3.763,1.406,3.592,1.253,3.413,1.114C2.578,0.47,1.596,0.147,0.468,0.147
		c-0.132,0-0.234,0.044-0.337,0.132C0.043,0.367,0,0.47,0,0.602v10.133c0,0.132,0.044,0.234,0.118,0.336
		c0.073,0.103,0.175,0.146,0.278,0.146c0.132,0,0.234-0.044,0.322-0.146c0.103-0.102,0.147-0.204,0.147-0.336V1.144
		c0.102,0,0.219,0.014,0.366,0.029c0.146,0.014,0.336,0.058,0.571,0.132C2.05,1.378,2.284,1.466,2.519,1.568
		C2.753,1.686,2.987,1.86,3.25,2.08C3.514,2.3,3.749,2.563,3.955,2.842C4.159,3.135,4.35,3.501,4.51,3.955
		c0.161,0.454,0.278,0.967,0.337,1.508c0.058,0.381,0.219,0.571,0.468,0.571c0.158,0,0.304-0.09,0.372-0.234
		C5.694,5.785,5.69,5.769,5.696,5.784c0.09-0.365,0.002-0.78-0.075-1.139C5.546,4.293,5.457,3.952,5.331,3.624"/>
	<path clip-path="url(#SVGID_2_)" d="M10.543,0.206c-0.073-0.073-0.161-0.117-0.278-0.117h-0.059c-1.113,0-2.094,0.337-2.958,0.996
		C6.62,1.567,6.107,2.139,5.727,2.797c0.095,0.257,0.302,0.525,0.407,1.21c0.059-0.205,0.119-0.316,0.207-0.506
		C6.619,2.93,6.912,2.505,7.234,2.212c0.322-0.293,0.674-0.527,1.055-0.717c0.38-0.19,0.688-0.308,0.907-0.352
		C9.431,1.1,9.621,1.085,9.782,1.085v9.709c0,0.117,0.044,0.219,0.132,0.292c0.088,0.088,0.191,0.132,0.293,0.132
		c0.132,0,0.234-0.044,0.322-0.117c0.088-0.072,0.132-0.175,0.132-0.307V0.528C10.661,0.396,10.632,0.294,10.543,0.206"/>
</g>
</svg>
