<?xml version="1.0" encoding="utf-8"?>
<!-- Generator: Adobe Illustrator 16.0.0, SVG Export Plug-In . SVG Version: 6.00 Build 0)  -->
<!DOCTYPE svg PUBLIC "-//W3C//DTD SVG 1.1//EN" "http://www.w3.org/Graphics/SVG/1.1/DTD/svg11.dtd">
<svg version="1.1" id="Layer_1" xmlns="http://www.w3.org/2000/svg" xmlns:xlink="http://www.w3.org/1999/xlink" x="0px" y="0px"
	 width="59.773px" height="54.634px" viewBox="0 0 59.773 54.634" enable-background="new 0 0 59.773 54.634" xml:space="preserve">
<g>
	<defs>
		<rect id="SVGID_1_" y="0" width="59.774" height="54.634"/>
	</defs>
	<clipPath id="SVGID_2_">
		<use xlink:href="#SVGID_1_"  overflow="visible"/>
	</clipPath>
	<path clip-path="url(#SVGID_2_)" fill="#FFFFFF" d="M0,53.627c1.319-1.313,2.804-1.187,4.007-1.087
		c1.138,0.103,2.037,0.175,2.879-0.67c0.85-0.848,0.773-1.744,0.676-2.877c-0.108-1.205-0.232-2.696,1.084-4.012
		c1.316-1.313,2.812-1.188,4.012-1.087c1.131,0.097,2.029,0.175,2.874-0.673c0.851-0.843,0.77-1.743,0.678-2.883
		c-0.102-1.199-0.229-2.692,1.082-4.006c1.319-1.316,2.814-1.189,4.009-1.082c1.141,0.092,2.035,0.172,2.888-0.676
		c0.842-0.842,0.767-1.749,0.667-2.879C24.757,30.494,24.63,29,25.943,27.69c1.316-1.318,2.807-1.189,4.007-1.087
		c1.138,0.094,2.034,0.175,2.877-0.676c0.853-0.841,0.771-1.743,0.678-2.879c-0.103-1.197-0.229-2.691,1.084-4.007
		c1.313-1.31,2.81-1.186,4.005-1.084c1.138,0.1,2.037,0.175,2.884-0.676c0.846-0.839,0.765-1.743,0.673-2.879
		c-0.102-1.203-0.231-2.691,1.082-4.009c1.316-1.311,2.81-1.182,4.01-1.082c1.136,0.094,2.028,0.172,2.88-0.67
		c0.845-0.848,0.766-1.746,0.672-2.882c-0.103-1.203-0.231-2.694,1.082-4.007c1.311-1.316,2.81-1.187,4.007-1.084
		C57.019,0.764,57.915,0.84,58.762,0l1.012,1.001c-1.323,1.314-2.812,1.182-4.007,1.079c-1.141-0.091-2.034-0.169-2.887,0.678
		c-0.84,0.846-0.762,1.742-0.671,2.877c0.104,1.2,0.234,2.694-1.081,4.01c-1.316,1.313-2.808,1.189-4.009,1.081
		c-1.137-0.091-2.03-0.169-2.874,0.673c-0.856,0.851-0.776,1.749-0.68,2.882c0.105,1.203,0.232,2.694-1.086,4.004
		c-1.313,1.319-2.805,1.19-4.005,1.087c-1.138-0.099-2.037-0.175-2.879,0.675c-0.853,0.848-0.775,1.742-0.679,2.88
		c0.107,1.198,0.231,2.694-1.081,4.007c-1.313,1.31-2.811,1.189-4.009,1.087c-1.131-0.101-2.032-0.175-2.88,0.67
		c-0.845,0.853-0.769,1.744-0.673,2.882c0.105,1.198,0.232,2.694-1.084,4.01c-1.316,1.316-2.81,1.187-4.007,1.084
		c-1.138-0.097-2.034-0.175-2.882,0.672c-0.847,0.849-0.772,1.742-0.673,2.881c0.102,1.202,0.224,2.696-1.084,4.01
		c-1.319,1.317-2.81,1.186-4.009,1.084c-1.136-0.098-2.037-0.172-2.88,0.675c-0.848,0.848-0.772,1.744-0.678,2.883
		c0.102,1.197,0.231,2.691-1.081,4.004c-1.316,1.318-2.813,1.189-4.007,1.084c-1.139-0.097-2.035-0.17-2.885,0.675"/>
</g>
</svg>
